<svg xmlns="http://www.w3.org/2000/svg" width="51.877" height="46.689" viewBox="0 0 51.877 46.689">
    <path data-name="Rectangle 2524" transform="translate(11.714 25.269)" style="fill:#80b1ff" d="M0 0h35.142v16.734H0z"/>
    <g data-name="Group 6184">
        <path data-name="Path 9240" d="m51.623 14.087-3.458-3.458a.865.865 0 0 0-.611-.253H44.1c.046.026-29.986 0-30.261 0H8.646V4.323a.865.865 0 0 0-.253-.611L4.935.254a.865.865 0 0 0-1.223 0L.254 3.712a.865.865 0 0 0-.253.611v16.428H1.73V4.681l2.594-2.594 2.594 2.594V44.96H1.729V19.786H0v26.038a.865.865 0 0 0 .865.865h6.917a.865.865 0 0 0 .865-.865v-26.8H14.7v6.052h-1.515a1.948 1.948 0 0 0-1.945 1.945v13.4a1.948 1.948 0 0 0 1.945 1.945h32.423a1.948 1.948 0 0 0 1.945-1.945v-8.209h-1.729v8.208a.216.216 0 0 1-.216.216H13.185a.216.216 0 0 1-.216-.216v-13.4a.216.216 0 0 1 .216-.216H14.7v1.729h1.729V26.8h25.937v1.729H44.1V26.8h1.513a.216.216 0 0 1 .216.216v5.836h1.729v-5.833a1.948 1.948 0 0 0-1.945-1.945H44.1v-6.053h3.458a.865.865 0 0 0 .611-.253l3.458-3.458a.865.865 0 0 0-.004-1.223zm-9.257-3.712zm-12.1 0zm12.1 14.7H16.428v-6.054h25.938zm4.834-7.783H8.646V12.1H47.2l2.589 2.6z"/>
        <g data-name="Group 17402">
            <path data-name="Path 9241" d="M21.615 32.639v-1.3a1.948 1.948 0 0 0-1.946-1.942h-1.3a1.948 1.948 0 0 0-1.942 1.946v6.7h1.729v-2.882l1.729 2.306v.576h1.729v-.865a.862.862 0 0 0-.173-.518l-1.564-2.086a1.948 1.948 0 0 0 1.738-1.935zm-1.729 0a.216.216 0 0 1-.216.216h-1.513v-1.513a.216.216 0 0 1 .216-.216h1.3a.216.216 0 0 1 .216.216z"/>
            <path data-name="Path 9242" d="M27.666 31.127v-1.73h-3.458a.865.865 0 0 0-.865.865v6.917a.865.865 0 0 0 .865.865h3.458v-1.73h-2.594v-1.729h1.729v-1.729h-1.729v-1.729z"/>
            <path data-name="Path 9243" d="M31.935 29.958a.865.865 0 0 0-.81-.561h-.865a.865.865 0 0 0-.865.865v7.782h1.729v-5.319l1.784 4.758a.865.865 0 0 0 .81.561h.865a.865.865 0 0 0 .865-.865v-7.782h-1.729v5.319z"/>
            <path data-name="Path 9244" d="M40.636 38.043v-6.916h1.729v-1.73h-5.187v1.73h1.729v6.917z"/>
        </g>
        <path data-name="Path 9245" d="M14.698 13.834h1.729v1.729h-1.729z"/>
        <path data-name="Path 9246" d="M42.366 13.834h1.729v1.729h-1.729z"/>
        <path data-name="Path 9247" d="M3.458 10.375h1.729v1.729H3.458z"/>
        <path data-name="Path 9248" d="M3.458 17.292h1.729v1.729H3.458z"/>
    </g>
</svg>
