<svg xmlns="http://www.w3.org/2000/svg" width="48.195" height="43.376" viewBox="0 0 48.195 43.376">
    <g data-name="Group 17405">
        <path data-name="Path 24942" d="M2769.361 391.237v-30.47h13.975v30.47z" transform="translate(-2742.07 -348.861)" style="fill:#8aedce"/>
        <g data-name="Group 17404">
            <g data-name="Group 17403">
                <path data-name="Path 24930" d="M47.392 41.769h-4.82v-29.72a.8.8 0 0 0-.8-.8H28.114V.8a.8.8 0 0 0-.8-.8H6.426a.8.8 0 0 0-.8.8v40.969H.8a.804.804 0 0 0 0 1.607h46.592a.804.804 0 1 0 0-1.607zm-20.885 0H7.229V1.607h19.278zm14.459 0H28.114V12.852h12.852z"/>
                <path data-name="Path 24931" d="M32.127 20.885h4.82a.8.8 0 0 0 .8-.8v-4.826a.8.8 0 0 0-.8-.8h-4.82a.8.8 0 0 0-.8.8v4.82a.8.8 0 0 0 .8.806zm.8-4.82h3.213v3.213h-3.213z"/>
                <path data-name="Path 24932" d="M32.127 28.917h4.82a.8.8 0 0 0 .8-.8v-4.826a.8.8 0 0 0-.8-.8h-4.82a.8.8 0 0 0-.8.8v4.82a.8.8 0 0 0 .8.806zm.8-4.82h3.213v3.213h-3.213z"/>
                <path data-name="Path 24933" d="M32.127 36.95h4.82a.8.8 0 0 0 .8-.8v-4.826a.8.8 0 0 0-.8-.8h-4.82a.8.8 0 0 0-.8.8v4.82a.8.8 0 0 0 .8.806zm.8-4.82h3.213v3.213h-3.213z"/>
                <path data-name="Path 24934" d="M18.472 20.885h4.82a.8.8 0 0 0 .8-.8v-4.826a.8.8 0 0 0-.8-.8h-4.82a.8.8 0 0 0-.8.8v4.82a.8.8 0 0 0 .8.806zm.8-4.82h3.213v3.213h-3.213z"/>
                <path data-name="Path 24935" d="M18.472 12.852h4.82a.8.8 0 0 0 .8-.8V7.226a.8.8 0 0 0-.8-.8h-4.82a.8.8 0 0 0-.8.8v4.82a.8.8 0 0 0 .8.806zm.8-4.82h3.213v3.214h-3.213z"/>
                <path data-name="Path 24936" d="M18.472 28.917h4.82a.8.8 0 0 0 .8-.8v-4.826a.8.8 0 0 0-.8-.8h-4.82a.8.8 0 0 0-.8.8v4.82a.8.8 0 0 0 .8.806zm.8-4.82h3.213v3.213h-3.213z"/>
                <path data-name="Path 24937" d="M18.472 36.95h4.82a.8.8 0 0 0 .8-.8v-4.826a.8.8 0 0 0-.8-.8h-4.82a.8.8 0 0 0-.8.8v4.82a.8.8 0 0 0 .8.806zm.8-4.82h3.213v3.213h-3.213z"/>
                <path data-name="Path 24938" d="M10.439 20.885h4.82a.8.8 0 0 0 .8-.8v-4.826a.8.8 0 0 0-.8-.8h-4.82a.8.8 0 0 0-.8.8v4.82a.8.8 0 0 0 .8.806zm.8-4.82h3.213v3.213h-3.206z"/>
                <path data-name="Path 24939" d="M10.439 12.852h4.82a.8.8 0 0 0 .8-.8V7.226a.8.8 0 0 0-.8-.8h-4.82a.8.8 0 0 0-.8.8v4.82a.8.8 0 0 0 .8.806zm.8-4.82h3.213v3.214h-3.206z"/>
                <path data-name="Path 24940" d="M10.439 28.917h4.82a.8.8 0 0 0 .8-.8v-4.826a.8.8 0 0 0-.8-.8h-4.82a.8.8 0 0 0-.8.8v4.82a.8.8 0 0 0 .8.806zm.8-4.82h3.213v3.213h-3.206z"/>
                <path data-name="Path 24941" d="M10.439 36.95h4.82a.8.8 0 0 0 .8-.8v-4.826a.8.8 0 0 0-.8-.8h-4.82a.8.8 0 0 0-.8.8v4.82a.8.8 0 0 0 .8.806zm.8-4.82h3.213v3.213h-3.206z"/>
            </g>
        </g>
    </g>
</svg>
